<svg width="49" height="49" viewBox="0 0 49 49" fill="none" xmlns="http://www.w3.org/2000/svg">
<path d="M27.5494 29.7338C27.6055 29.1054 28.0905 28.6952 28.7201 28.6548C29.8205 28.5841 32.0625 28.5 36.5 28.5C40.9375 28.5 43.1795 28.5841 44.2799 28.6548C44.9095 28.6952 45.3945 29.1054 45.4506 29.7338C45.4794 30.0552 45.5 30.4704 45.5 31C45.5 31.5296 45.4794 31.9448 45.4506 32.2662C45.3945 32.8946 44.9095 33.3048 44.2799 33.3452C43.1795 33.4159 40.9375 33.5 36.5 33.5C32.0625 33.5 29.8205 33.4159 28.7201 33.3452C28.0905 33.3048 27.6055 32.8946 27.5494 32.2662C27.5206 31.9448 27.5 31.5296 27.5 31C27.5 30.4704 27.5206 30.0552 27.5494 29.7338Z" fill="#808080"/>
<path d="M27.5303 40.7794C27.5669 40.1296 28.0297 39.6725 28.6788 39.6238C29.5067 39.5617 30.9667 39.5 33.5 39.5C36.0333 39.5 37.4933 39.5617 38.3212 39.6238C38.9703 39.6725 39.4331 40.1296 39.4697 40.7795C39.4875 41.0943 39.5 41.4951 39.5 42C39.5 42.5049 39.4875 42.9057 39.4697 43.2205C39.4331 43.8704 38.9703 44.3275 38.3212 44.3762C37.4933 44.4383 36.0333 44.5 33.5 44.5C30.9667 44.5 29.5067 44.4383 28.6788 44.3762C28.0297 44.3275 27.5669 43.8704 27.5303 43.2205C27.5125 42.9057 27.5 42.5049 27.5 42C27.5 41.4951 27.5125 41.0943 27.5303 40.7794Z" fill="#808080"/>
<path d="M27.5303 16.7794C27.5669 16.1296 28.0297 15.6725 28.6788 15.6238C29.5067 15.5617 30.9667 15.5 33.5 15.5C36.0333 15.5 37.4933 15.5617 38.3212 15.6238C38.9703 15.6725 39.4331 16.1296 39.4697 16.7795C39.4875 17.0943 39.5 17.4951 39.5 18C39.5 18.5049 39.4875 18.9057 39.4697 19.2205C39.4331 19.8704 38.9703 20.3275 38.3212 20.3762C37.4933 20.4383 36.0333 20.5 33.5 20.5C30.9667 20.5 29.5067 20.4383 28.6788 20.3762C28.0297 20.3275 27.5669 19.8704 27.5303 19.2205C27.5125 18.9057 27.5 18.5049 27.5 18C27.5 17.4951 27.5125 17.0943 27.5303 16.7794Z" fill="#808080"/>
<path d="M27.5494 5.73377C27.6055 5.10537 28.0905 4.69519 28.7201 4.65477C29.8205 4.58412 32.0625 4.5 36.5 4.5C40.9375 4.5 43.1795 4.58412 44.2799 4.65477C44.9095 4.69519 45.3945 5.10537 45.4506 5.73377C45.4794 6.05521 45.5 6.47035 45.5 7C45.5 7.52964 45.4794 7.94479 45.4506 8.26623C45.3945 8.89463 44.9095 9.30481 44.2799 9.34523C43.1795 9.41588 40.9375 9.5 36.5 9.5C32.0625 9.5 29.8205 9.41588 28.7201 9.34523C28.0905 9.30481 27.6055 8.89463 27.5494 8.26623C27.5206 7.94479 27.5 7.52964 27.5 7C27.5 6.47035 27.5206 6.05521 27.5494 5.73377Z" fill="#808080"/>
<path d="M21.3417 30.7708C21.2351 29.0649 19.9351 27.7649 18.2292 27.6583C16.8613 27.5727 14.9715 27.5 12.5 27.5C10.0285 27.5 8.13868 27.5727 6.77076 27.6582C5.06494 27.7649 3.76491 29.0649 3.65825 30.7708C3.57272 32.1387 3.5 34.0285 3.5 36.5C3.5 38.9715 3.57272 40.8613 3.65825 42.2292C3.76491 43.9351 5.06494 45.2351 6.77076 45.3418C8.13868 45.4273 10.0285 45.5 12.5 45.5C14.9715 45.5 16.8613 45.4273 18.2292 45.3418C19.9351 45.2351 21.2351 43.9351 21.3417 42.2292C21.4273 40.8613 21.5 38.9715 21.5 36.5C21.5 34.0285 21.4273 32.1387 21.3417 30.7708Z" fill="white"/>
<path d="M21.3417 6.77076C21.2351 5.06495 19.9351 3.76491 18.2292 3.65825C16.8613 3.57272 14.9715 3.5 12.5 3.5C10.0285 3.5 8.13868 3.57272 6.77076 3.65825C5.06494 3.76491 3.76491 5.06494 3.65825 6.77076C3.57272 8.13868 3.5 10.0285 3.5 12.5C3.5 14.9715 3.57272 16.8613 3.65825 18.2292C3.76491 19.9351 5.06494 21.2351 6.77076 21.3418C8.13868 21.4273 10.0285 21.5 12.5 21.5C14.9715 21.5 16.8613 21.4273 18.2292 21.3418C19.9351 21.2351 21.2351 19.9351 21.3417 18.2292C21.4273 16.8613 21.5 14.9715 21.5 12.5C21.5 10.0285 21.4273 8.13869 21.3417 6.77076Z" fill="white"/>
<path d="M21.3417 6.77076C21.2351 5.06495 19.9351 3.76491 18.2292 3.65825C16.8613 3.57272 14.9715 3.5 12.5 3.5C10.0285 3.5 8.13868 3.57272 6.77076 3.65825C5.06494 3.76491 3.76491 5.06494 3.65825 6.77076C3.57272 8.13868 3.5 10.0285 3.5 12.5C3.5 14.9715 3.57272 16.8613 3.65825 18.2292C3.76491 19.9351 5.06494 21.2351 6.77076 21.3418C8.13868 21.4273 10.0285 21.5 12.5 21.5C14.9715 21.5 16.8613 21.4273 18.2292 21.3418C19.9351 21.2351 21.2351 19.9351 21.3417 18.2292C21.4273 16.8613 21.5 14.9715 21.5 12.5C21.5 10.0285 21.4273 8.13869 21.3417 6.77076Z" stroke="#AAAAAA" stroke-width="3" stroke-linecap="round" stroke-linejoin="round"/>
<path d="M21.3417 30.7708C21.2351 29.0649 19.9351 27.7649 18.2292 27.6583C16.8613 27.5727 14.9715 27.5 12.5 27.5C10.0285 27.5 8.13868 27.5727 6.77076 27.6582C5.06494 27.7649 3.76491 29.0649 3.65825 30.7708C3.57272 32.1387 3.5 34.0285 3.5 36.5C3.5 38.9715 3.57272 40.8613 3.65825 42.2292C3.76491 43.9351 5.06494 45.2351 6.77076 45.3418C8.13868 45.4273 10.0285 45.5 12.5 45.5C14.9715 45.5 16.8613 45.4273 18.2292 45.3418C19.9351 45.2351 21.2351 43.9351 21.3417 42.2292C21.4273 40.8613 21.5 38.9715 21.5 36.5C21.5 34.0285 21.4273 32.1387 21.3417 30.7708Z" stroke="#AAAAAA" stroke-width="3" stroke-linecap="round" stroke-linejoin="round"/>
<path d="M27.5494 5.73377C27.6055 5.10537 28.0905 4.69519 28.7201 4.65477C29.8205 4.58412 32.0625 4.5 36.5 4.5C40.9375 4.5 43.1795 4.58412 44.2799 4.65477C44.9095 4.69519 45.3945 5.10537 45.4506 5.73377C45.4794 6.05521 45.5 6.47035 45.5 7C45.5 7.52964 45.4794 7.94479 45.4506 8.26623C45.3945 8.89463 44.9095 9.30481 44.2799 9.34523C43.1795 9.41588 40.9375 9.5 36.5 9.5C32.0625 9.5 29.8205 9.41588 28.7201 9.34523C28.0905 9.30481 27.6055 8.89463 27.5494 8.26623C27.5206 7.94479 27.5 7.52964 27.5 7C27.5 6.47035 27.5206 6.05521 27.5494 5.73377Z" stroke="#AAAAAA" stroke-width="3" stroke-linecap="round" stroke-linejoin="round"/>
<path d="M27.5303 16.7794C27.5669 16.1296 28.0297 15.6725 28.6788 15.6238C29.5067 15.5617 30.9667 15.5 33.5 15.5C36.0333 15.5 37.4933 15.5617 38.3212 15.6238C38.9703 15.6725 39.4331 16.1296 39.4697 16.7795C39.4875 17.0943 39.5 17.4951 39.5 18C39.5 18.5049 39.4875 18.9057 39.4697 19.2205C39.4331 19.8704 38.9703 20.3275 38.3212 20.3762C37.4933 20.4383 36.0333 20.5 33.5 20.5C30.9667 20.5 29.5067 20.4383 28.6788 20.3762C28.0297 20.3275 27.5669 19.8704 27.5303 19.2205C27.5125 18.9057 27.5 18.5049 27.5 18C27.5 17.4951 27.5125 17.0943 27.5303 16.7794Z" stroke="#AAAAAA" stroke-width="3" stroke-linecap="round" stroke-linejoin="round"/>
<path d="M27.5303 40.7794C27.5669 40.1296 28.0297 39.6725 28.6788 39.6238C29.5067 39.5617 30.9667 39.5 33.5 39.5C36.0333 39.5 37.4933 39.5617 38.3212 39.6238C38.9703 39.6725 39.4331 40.1296 39.4697 40.7795C39.4875 41.0943 39.5 41.4951 39.5 42C39.5 42.5049 39.4875 42.9057 39.4697 43.2205C39.4331 43.8704 38.9703 44.3275 38.3212 44.3762C37.4933 44.4383 36.0333 44.5 33.5 44.5C30.9667 44.5 29.5067 44.4383 28.6788 44.3762C28.0297 44.3275 27.5669 43.8704 27.5303 43.2205C27.5125 42.9057 27.5 42.5049 27.5 42C27.5 41.4951 27.5125 41.0943 27.5303 40.7794Z" stroke="#AAAAAA" stroke-width="3" stroke-linecap="round" stroke-linejoin="round"/>
<path d="M27.5494 29.7338C27.6055 29.1054 28.0905 28.6952 28.7201 28.6548C29.8205 28.5841 32.0625 28.5 36.5 28.5C40.9375 28.5 43.1795 28.5841 44.2799 28.6548C44.9095 28.6952 45.3945 29.1054 45.4506 29.7338C45.4794 30.0552 45.5 30.4704 45.5 31C45.5 31.5296 45.4794 31.9448 45.4506 32.2662C45.3945 32.8946 44.9095 33.3048 44.2799 33.3452C43.1795 33.4159 40.9375 33.5 36.5 33.5C32.0625 33.5 29.8205 33.4159 28.7201 33.3452C28.0905 33.3048 27.6055 32.8946 27.5494 32.2662C27.5206 31.9448 27.5 31.5296 27.5 31C27.5 30.4704 27.5206 30.0552 27.5494 29.7338Z" stroke="#AAAAAA" stroke-width="3" stroke-linecap="round" stroke-linejoin="round"/>
</svg>
